<svg xmlns="http://www.w3.org/2000/svg" viewBox="0 0 32 32">
  <defs>
    <linearGradient id="bridgeGradient" x1="0%" y1="0%" x2="0%" y2="100%">
      <stop offset="0%" style="stop-color:#f59e0b;stop-opacity:1" />
      <stop offset="100%" style="stop-color:#d97706;stop-opacity:1" />
    </linearGradient>
  </defs>
  
  <!-- Background circle -->
  <circle cx="16" cy="16" r="15" fill="#ffffff" stroke="#f59e0b" stroke-width="1"/>
  
  <g fill="url(#bridgeGradient)" stroke="url(#bridgeGradient)">
    <!-- Left Tower - Art Deco Tapered Shape -->
    <path d="M7 22 L7 15 L7.5 15 L7.5 11 L8.5 11 L8.5 15 L9 15 L9 22 Z" stroke-width="0.5" stroke-linejoin="round"/>
    <!-- Horizontal bracing -->
    <line x1="7" y1="18" x2="9" y2="18" stroke-width="0.5" />
    <line x1="7.5" y1="13" x2="8.5" y2="13" stroke-width="0.5" />

    <!-- Right Tower - Art Deco Tapered Shape -->
    <path d="M23 22 L23 15 L23.5 15 L23.5 11 L24.5 11 L24.5 15 L25 15 L25 22 Z" stroke-width="0.5" stroke-linejoin="round"/>
    <!-- Horizontal bracing -->
    <line x1="23" y1="18" x2="25" y2="18" stroke-width="0.5" />
    <line x1="23.5" y1="13" x2="24.5" y2="13" stroke-width="0.5" />
    
    <!-- Main suspension cable - Elegant Swoop -->
    <path d="M 8 11 Q 16 21 24 11" fill="none" stroke-width="1.5" stroke-linecap="round"/>
    
    <!-- Vertical cables - Finer and more numerous for scale -->
    <g stroke-width="0.4" opacity="0.8">
        <line x1="10" y1="14" x2="10" y2="22" />
        <line x1="12" y1="16" x2="12" y2="22" />
        <line x1="14" y1="17.5" x2="14" y2="22" />
        <line x1="16" y1="18" x2="16" y2="22" />
        <line x1="18" y1="17.5" x2="18" y2="22" />
        <line x1="20" y1="16" x2="20" y2="22" />
        <line x1="22" y1="14" x2="22" y2="22" />
    </g>
    
    <!-- Bridge deck -->
    <path d="M 5 22 L 27 22" stroke-width="2" stroke-linecap="round"/>
  </g>
</svg>
